<svg width="18" height="23" viewBox="0 0 18 23" fill="none" xmlns="http://www.w3.org/2000/svg">
<path d="M2.40825 9.64751C2.63108 6.00066 5.34641 2.6416 9.00002 2.6416C12.6537 2.6416 15.369 6.00067 15.5918 9.64751C15.6932 11.3059 15.961 12.8964 16.7874 14.3518C17.667 15.9009 16.876 18.0191 15.1068 18.2276C13.0719 18.4673 10.6894 18.6957 9.00002 18.6957C7.31072 18.6957 4.92819 18.4673 2.89326 18.2276C1.12413 18.0191 0.333101 15.9009 1.2127 14.3518C2.0391 12.8964 2.3069 11.3059 2.40825 9.64751Z" stroke="white" stroke-width="1.69585"/>
<path d="M7.04082 18.4688C6.8484 18.8014 6.73828 19.1875 6.73828 19.5993C6.73828 20.8481 7.75059 21.8605 8.99942 21.8605C10.2482 21.8605 11.2606 20.8481 11.2606 19.5993C11.2606 19.1875 11.1504 18.8014 10.958 18.4688" stroke="white" stroke-width="1.69585" stroke-linejoin="round"/>
<path d="M10.0501 2.49494C10.1018 2.36534 10.1303 2.22394 10.1303 2.07588C10.1303 1.45149 9.62412 0.945312 8.99971 0.945312C8.3753 0.945312 7.86914 1.45149 7.86914 2.07588C7.86914 2.22394 7.89763 2.36534 7.9493 2.49494" stroke="white" stroke-width="1.69585" stroke-linejoin="round"/>
</svg>
