<svg width="23" height="24" viewBox="0 0 23 24" fill="none" xmlns="http://www.w3.org/2000/svg">
<path d="M13.2275 0.833008C14.0365 0.833008 14.7925 1.23707 15.2412 1.91016L16.3047 3.50586C16.7029 4.10324 17.3738 4.46191 18.0918 4.46191C20.4634 4.46214 22.3857 6.38514 22.3857 8.75684V18.4951C22.3857 21.1675 20.2193 23.334 17.5469 23.334H4.84473C2.17229 23.3339 0.00585938 21.1675 0.00585938 18.4951V8.75684C0.00585938 6.385 1.92894 4.46191 4.30078 4.46191C5.01861 4.46181 5.68873 4.10315 6.08691 3.50586L7.15039 1.91016C7.59912 1.23706 8.35507 0.833008 9.16406 0.833008H13.2275ZM11.1963 8.53223C8.60712 8.53223 6.50781 10.6315 6.50781 13.2207C6.50801 15.8097 8.60724 17.9082 11.1963 17.9082C13.7852 17.908 15.8836 15.8096 15.8838 13.2207C15.8838 10.6317 13.7853 8.53242 11.1963 8.53223ZM19.0596 6.88184C18.5585 6.88184 18.1523 7.28798 18.1523 7.78906C18.1524 8.29011 18.5585 8.69629 19.0596 8.69629H19.0713C19.5723 8.69627 19.9785 8.2901 19.9785 7.78906C19.9785 7.28799 19.5723 6.88185 19.0713 6.88184H19.0596Z" fill="#8E8E93"/>
</svg>
