<svg width="24" height="24" viewBox="0 0 24 24" fill="none" xmlns="http://www.w3.org/2000/svg">
<path d="M13.9502 0.833008C14.7591 0.833008 15.5152 1.23707 15.9639 1.91016L17.0273 3.50586C17.4256 4.10324 18.0965 4.46191 18.8145 4.46191C21.1861 4.46214 23.1084 6.38514 23.1084 8.75684V18.4951C23.1084 21.1675 20.942 23.334 18.2695 23.334H5.56738C2.89494 23.3339 0.728516 21.1675 0.728516 18.4951V8.75684C0.728516 6.385 2.6516 4.46191 5.02344 4.46191C5.74127 4.46181 6.41139 4.10315 6.80957 3.50586L7.87305 1.91016C8.32177 1.23706 9.07772 0.833008 9.88672 0.833008H13.9502ZM11.9189 8.53223C9.32977 8.53223 7.23047 10.6315 7.23047 13.2207C7.23067 15.8097 9.3299 17.9082 11.9189 17.9082C14.5078 17.908 16.6062 15.8096 16.6064 13.2207C16.6064 10.6317 14.5079 8.53242 11.9189 8.53223ZM19.7822 6.88184C19.2812 6.88184 18.875 7.28798 18.875 7.78906C18.875 8.29011 19.2812 8.69629 19.7822 8.69629H19.7939C20.295 8.69627 20.7011 8.2901 20.7012 7.78906C20.7012 7.28799 20.295 6.88185 19.7939 6.88184H19.7822Z" fill="#0B9454"/>
</svg>
