<svg width="22" height="22" viewBox="0 0 22 22" fill="none" xmlns="http://www.w3.org/2000/svg">
<path d="M19.9664 6.37309L12.9004 1.0735C11.6099 0.10571 9.83575 0.10571 8.54533 1.0735L1.4792 6.37309C0.30167 7.25624 -0.225822 8.76317 0.143836 10.1879L2.45686 19.1026C2.87208 20.703 4.31643 21.8204 5.96974 21.8204H6.48877C7.15689 21.8204 7.6985 21.2788 7.6985 20.6107V15.7718C7.6985 15.1036 8.24012 14.562 8.90825 14.562H12.5374C13.2056 14.562 13.7472 15.1036 13.7472 15.7718V20.6107C13.7472 21.2788 14.2888 21.8204 14.9569 21.8204H15.4759C17.1292 21.8204 18.5737 20.703 18.9888 19.1026L21.3018 10.1879C21.6715 8.76317 21.144 7.25624 19.9664 6.37309Z" fill="#8E8E93"/>
</svg>
