<svg width="22" height="22" viewBox="0 0 22 22" fill="none" xmlns="http://www.w3.org/2000/svg">
<path d="M20.2438 6.37309L13.1777 1.0735C11.8873 0.10571 10.1131 0.10571 8.82267 1.0735L1.75654 6.37309C0.579014 7.25624 0.051522 8.76317 0.42118 10.1879L2.7342 19.1026C3.14942 20.703 4.59377 21.8204 6.24709 21.8204H6.76611C7.43424 21.8204 7.97585 21.2788 7.97585 20.6107V15.7718C7.97585 15.1036 8.51747 14.562 9.18559 14.562H12.8148C13.4829 14.562 14.0245 15.1036 14.0245 15.7718V20.6107C14.0245 21.2788 14.5661 21.8204 15.2343 21.8204H15.7532C17.4066 21.8204 18.851 20.703 19.2662 19.1026L21.5792 10.1879C21.9489 8.76317 21.4213 7.25624 20.2438 6.37309Z" fill="#0B9454"/>
</svg>
