<svg width="19" height="17" viewBox="0 0 19 17" fill="none" xmlns="http://www.w3.org/2000/svg">
<path d="M16.338 0C16.8194 0 17.2812 0.191258 17.6216 0.531698C17.9621 0.872139 18.1533 1.33388 18.1533 1.81533V14.5227C18.1533 15.0041 17.9621 15.4658 17.6216 15.8063C17.2812 16.1467 16.8194 16.338 16.338 16.338H1.81533C1.33388 16.338 0.872139 16.1467 0.531698 15.8063C0.191258 15.4658 0 15.0041 0 14.5227V1.81533C0 1.33388 0.191258 0.872139 0.531698 0.531698C0.872139 0.191258 1.33388 0 1.81533 0H16.338ZM16.338 1.81533H1.81533V10.9828L6.34912 6.44987C6.45448 6.34449 6.57957 6.26089 6.71725 6.20385C6.85492 6.14681 7.00248 6.11746 7.1515 6.11746C7.30052 6.11746 7.44808 6.14681 7.58576 6.20385C7.72343 6.26089 7.84852 6.34449 7.95388 6.44987L11.6435 10.1404L12.7672 9.01675C12.8726 8.91137 12.9977 8.82777 13.1354 8.77073C13.273 8.71369 13.4206 8.68434 13.5696 8.68434C13.7186 8.68434 13.8662 8.71369 14.0039 8.77073C14.1415 8.82777 14.2666 8.91137 14.372 9.01675L16.338 10.9837V1.81533ZM12.2535 3.63066C12.6146 3.63066 12.9609 3.77411 13.2162 4.02944C13.4715 4.28477 13.615 4.63107 13.615 4.99216C13.615 5.35325 13.4715 5.69956 13.2162 5.95489C12.9609 6.21022 12.6146 6.35366 12.2535 6.35366C11.8924 6.35366 11.5461 6.21022 11.2908 5.95489C11.0354 5.69956 10.892 5.35325 10.892 4.99216C10.892 4.63107 11.0354 4.28477 11.2908 4.02944C11.5461 3.77411 11.8924 3.63066 12.2535 3.63066Z" fill="#8E8E93"/>
</svg>
