<svg width="18" height="24" viewBox="0 0 18 24" fill="none" xmlns="http://www.w3.org/2000/svg">
<path fill-rule="evenodd" clip-rule="evenodd" d="M5.26374 0.893555H9.49781V3.31302C9.49781 6.6536 12.2059 9.36169 15.5465 9.36169H17.9659V18.4347C17.9659 21.1071 15.7994 23.2736 13.127 23.2736H5.26374C2.59127 23.2736 0.424805 21.1071 0.424805 18.4347V5.73249C0.424805 3.06002 2.59127 0.893555 5.26374 0.893555ZM4.05401 11.7812C4.05401 11.2801 4.46022 10.8739 4.96131 10.8739H13.4294C13.9305 10.8739 14.3367 11.2801 14.3367 11.7812C14.3367 12.2822 13.9305 12.6885 13.4294 12.6885H4.96131C4.46022 12.6885 4.05401 12.2822 4.05401 11.7812ZM4.05401 15.4104C4.05401 14.9093 4.46022 14.5031 4.96131 14.5031H13.4294C13.9305 14.5031 14.3367 14.9093 14.3367 15.4104C14.3367 15.9114 13.9305 16.3177 13.4294 16.3177H4.96131C4.46022 16.3177 4.05401 15.9114 4.05401 15.4104ZM4.96131 18.1323C4.46022 18.1323 4.05401 18.5385 4.05401 19.0396C4.05401 19.5406 4.46022 19.9469 4.96131 19.9469H8.59051C9.09158 19.9469 9.49781 19.5406 9.49781 19.0396C9.49781 18.5385 9.09158 18.1323 8.59051 18.1323H4.96131Z" fill="#0B9454"/>
<path d="M17.9664 7.40645V8.15196H15.5469C12.8745 8.15196 10.708 5.98549 10.708 3.31302V0.893555H11.9838C12.3268 0.893555 12.6536 1.03911 12.883 1.29402L17.6559 6.59717C17.7483 6.69988 17.8216 6.81672 17.8737 6.94222C17.9345 7.08815 17.9664 7.24577 17.9664 7.40645Z" fill="#0B9454"/>
</svg>
