<svg width="134" height="129" viewBox="0 0 134 129" fill="none" xmlns="http://www.w3.org/2000/svg">
<path d="M73.2285 53.4189C99.55 56.1882 133.643 71.9931 133.644 90.7764C133.643 111.516 88.4215 128.329 63.043 128.329L62.5576 128.326C54.8121 128.228 47.6314 125.785 41.6934 121.674C41.7294 121.669 41.7657 121.663 41.8018 121.658C37.3839 118.54 33.2863 114.304 30.5625 109.631C30.5615 109.631 30.5605 109.63 30.5596 109.63C27.3364 104.089 25.4893 97.6477 25.4893 90.7754L25.4932 90.29C25.7368 71.0752 38.9693 55.9502 57.7354 54.0312C58.8768 57.7705 59.8339 61.4741 60.583 65.0283C46.4861 65.5633 36.6634 76.5476 36.6631 90.7754C36.6631 98.1555 39.6963 104.826 44.5811 109.614C44.5611 109.621 44.5404 109.626 44.5205 109.633C47.6293 112.627 51.9944 115.148 56.29 116.365C56.3213 116.345 56.3536 116.327 56.3848 116.307C58.5117 116.86 60.743 117.155 63.043 117.155C73.8094 117.155 89.843 113.444 103.113 107.215C109.7 104.123 114.963 100.705 118.405 97.3691C121.938 93.9459 122.47 91.7164 122.47 90.7754C122.47 89.7641 121.915 87.5204 118.464 84.1299C115.086 80.8121 109.907 77.4066 103.386 74.3242C93.9906 69.8836 85.4516 66.4715 75.9219 65.0283C75.2337 61.2651 74.3263 57.3606 73.2285 53.4189ZM33.7285 0.762695C48.8249 0.763023 64.0551 28.0005 71.2266 53.6895C71.2473 53.6916 71.2683 53.6941 71.2891 53.6963C72.3869 57.6381 73.2952 61.7034 73.9834 65.4668C73.9751 65.4655 73.9663 65.4641 73.958 65.4629C74.9321 70.8108 75.4639 75.8717 75.4639 80.3467L75.4609 80.8848C75.2878 96.0625 69.0428 107.405 57.9834 114.539C53.4627 113.363 49.4144 111.018 46.1787 107.847C56.7951 104.38 64.2899 95.1495 64.29 80.3467C64.29 75.809 63.6207 70.3695 62.3896 64.5283C62.3958 64.5281 62.402 64.5276 62.4082 64.5273C61.6665 61.0188 60.7226 57.2131 59.5996 53.5254C59.5804 53.5273 59.5612 53.5293 59.542 53.5312C57.6138 47.215 55.1598 40.7949 52.2959 34.8145C48.6583 27.2185 44.6648 20.988 40.8125 16.8398C36.7092 12.4216 34.2784 11.9367 33.7285 11.9365C33.4657 11.9368 31.6648 12.0733 28.5322 16.0381C25.4975 19.8792 22.4715 25.8278 19.8008 33.3809C14.4766 48.4382 11.5312 67.0739 11.5312 80.3467C11.5314 95.1714 17.2608 106.457 27.8984 109.906C30.6828 114.693 34.4946 118.809 39.0322 121.95C37.6704 122.116 36.2864 122.202 34.8848 122.202C14.307 122.202 0.62024 103.662 0.360352 80.8848L0.357422 80.3467C0.357422 51.2824 12.9889 0.763776 33.7285 0.762695Z" fill="white"/>
</svg>
