<svg width="92" height="89" viewBox="0 0 92 89" fill="none" xmlns="http://www.w3.org/2000/svg">
<path d="M50.3467 36.8428C68.4306 38.7453 91.8543 49.6039 91.8545 62.5088C91.8539 76.7578 60.7847 88.3085 43.3486 88.3086L43.0156 88.3066C37.6942 88.2392 32.7603 86.5605 28.6807 83.7363C28.7054 83.7333 28.7302 83.7287 28.7549 83.7256C25.7196 81.5831 22.9045 78.673 21.0332 75.4619H21.0312C18.8168 71.6549 17.5479 67.2293 17.5479 62.5078L17.5498 62.1748C17.7171 48.9734 26.8091 38.5821 39.7021 37.2637C40.4863 39.8325 41.1436 42.3766 41.6582 44.8184C31.9734 45.1861 25.225 52.7331 25.2246 62.5078C25.2246 67.5781 27.3081 72.1618 30.6641 75.4512C30.6508 75.4555 30.6372 75.4586 30.624 75.4629C32.7602 77.5202 35.7592 79.2517 38.7109 80.0879C38.7318 80.0745 38.7536 80.0623 38.7744 80.0488C40.2356 80.4288 41.7685 80.6318 43.3486 80.6318C50.7455 80.6318 61.7608 78.0822 70.8779 73.8027C75.4035 71.6784 79.0197 69.3301 81.3848 67.0381C83.8117 64.6862 84.1777 63.1543 84.1777 62.5078C84.1775 61.8129 83.7958 60.2715 81.4248 57.9424C79.1043 55.6629 75.5459 53.3228 71.0654 51.2051C64.6108 48.1543 58.7444 45.8099 52.1973 44.8184C51.7245 42.233 51.1009 39.5507 50.3467 36.8428ZM23.209 0.666016C33.5807 0.666458 44.0436 19.3792 48.9707 37.0283C48.985 37.0298 48.9993 37.0317 49.0137 37.0332C49.7679 39.7414 50.3924 42.5345 50.8652 45.1201C50.8595 45.1192 50.8534 45.1181 50.8477 45.1172C51.5169 48.7916 51.8828 52.2691 51.8828 55.3438L51.8799 55.7129C51.7609 66.1405 47.4711 73.9334 39.873 78.835C36.7673 78.0272 33.9857 76.4162 31.7627 74.2373C39.0564 71.8556 44.2048 65.5136 44.2051 55.3438C44.2051 52.2262 43.7452 48.4887 42.8994 44.4756C42.9039 44.4754 42.9086 44.4748 42.9131 44.4746C42.4035 42.0641 41.7549 39.4496 40.9834 36.916C40.9701 36.9174 40.9567 36.9186 40.9434 36.9199C39.6186 32.5805 37.9324 28.1702 35.9648 24.0615C33.4656 18.8427 30.7219 14.5619 28.0752 11.7119C25.2565 8.67689 23.5871 8.34299 23.209 8.34277C23.0294 8.34283 21.792 8.43578 19.6387 11.1611C17.5537 13.8001 15.4745 17.887 13.6396 23.0762C9.98177 33.4212 7.95801 46.2248 7.95801 55.3438C7.95822 65.5287 11.8947 73.2827 19.2031 75.6523C21.1161 78.941 23.7351 81.7685 26.8525 83.9268C25.9169 84.0409 24.9659 84.0996 24.0029 84.0996C9.8652 84.0994 0.461757 71.3619 0.283203 55.7129L0.28125 55.3438C0.28125 35.3753 8.95985 0.666308 23.209 0.666016Z" fill="#0B9454"/>
</svg>
